<?xml version="1.0" encoding="utf-8"?>
<!-- Generator: Adobe Illustrator 16.0.0, SVG Export Plug-In . SVG Version: 6.00 Build 0)  -->
<!DOCTYPE svg PUBLIC "-//W3C//DTD SVG 1.1//EN" "http://www.w3.org/Graphics/SVG/1.1/DTD/svg11.dtd">
<svg version="1.1" id="Layer_1" xmlns="http://www.w3.org/2000/svg" xmlns:xlink="http://www.w3.org/1999/xlink" x="0px" y="0px"
	 width="313.667px" height="69px" viewBox="0 0 313.667 69" enable-background="new 0 0 313.667 69" xml:space="preserve">
<g>
	<path fill-rule="evenodd" clip-rule="evenodd" fill="#F05253" d="M154.706,40.946c-4.252,0.033-7.851-1.31-10.331-4.957
		c-2.062-3.032-2.704-6.438-2.531-10.036c0.146-3.059,0.901-5.921,2.861-8.363c2.976-3.708,6.935-5.013,11.539-4.629
		c3.049,0.254,5.662,1.496,7.75,3.752c0.982,1.061,1.659,2.311,1.928,3.745c0.236,1.261-0.351,2.44-1.388,2.88
		c-1.123,0.477-2.285,0.078-3.048-1.083c-0.465-0.707-0.852-1.468-1.333-2.163c-2.659-3.84-8.314-3.797-10.947,0.075
		c-1.854,2.727-1.966,5.801-1.699,8.923c0.159,1.86,0.679,3.62,1.847,5.145c2.489,3.252,9.555,3.655,11.656-2.072
		c0.197-0.536,0.414-1.066,0.654-1.584c0.36-0.779,1.454-1.226,2.426-1.02c1.07,0.228,1.853,1.091,1.918,2.138
		c0.099,1.585-0.463,2.988-1.292,4.283c-2.097,3.279-5.206,4.761-9.008,4.962C155.375,40.961,155.04,40.946,154.706,40.946z"/>
	<path fill-rule="evenodd" clip-rule="evenodd" fill="#407FC2" d="M71.151,34.181c0.41-1.192,0.831-2.405,1.244-3.622
		c1.779-5.245,3.543-10.495,5.341-15.734c0.723-2.109,3-2.651,4.453-1.087c0.877,0.945,0.784,2.028,0.372,3.145
		c-1.509,4.09-3.013,8.183-4.518,12.276c-1.056,2.87-2.085,5.75-3.174,8.609c-0.527,1.384-1.235,2.654-2.844,3.067
		c-1.88,0.482-3.451-0.124-4.435-1.796c-0.942-1.603-1.4-3.411-2.043-5.137c-2.053-5.506-4.059-11.029-6.074-16.548
		c-0.144-0.396-0.236-0.813-0.325-1.225c-0.313-1.452,0.333-2.642,1.669-3.1c1.415-0.484,2.723,0.016,3.305,1.393
		c1.216,2.875,2.081,5.879,3.098,8.827c1.225,3.548,2.418,7.108,3.626,10.663C70.883,34.018,70.896,34.153,71.151,34.181z"/>
	<path fill-rule="evenodd" clip-rule="evenodd" fill="#4080BF" d="M21.656,31.622c-0.694-0.061-1.393-0.085-2.08-0.188
		c-1.881-0.28-3.381-1.204-4.29-2.884c-0.653-1.208-1.555-2.14-2.605-2.983c-2.252-1.81-3.443-4.09-3.106-7.061
		c0.141-1.247-0.121-2.479-0.359-3.699c-0.201-1.03-0.2-2.045,0.033-3.067c0.168-0.737,0.347-1.476,0.445-2.225
		C9.9,7.96,11,7.196,12.23,6.531c1.486-0.804,3.087-1.223,4.755-1.43c1.021-0.127,2.047-0.242,3.051-0.456
		c1.427-0.304,2.806-0.171,4.07,0.496c1.125,0.594,2.242,0.581,3.432,0.396c1.416-0.22,2.845-0.251,4.249,0.089
		c1.315,0.319,2.457,0.987,3.115,2.188c0.624,1.139,1.523,1.302,2.672,1.174c1.716-0.192,3.44-0.369,5.171-0.282
		c1.533,0.077,2.996,0.437,4.332,1.229c1.85,1.097,2.721,2.809,2.075,4.843c-0.569,1.79-0.547,3.558-0.499,5.367
		c0.052,1.949-0.049,3.875-0.724,5.738c-0.307,0.849-0.715,1.643-1.431,2.174c-1.205,0.893-1.749,2.06-1.944,3.524
		c-0.44,3.295-1.939,6.208-3.384,9.152c-1.175,2.394-2.513,4.703-3.642,7.114c-0.867,1.854-1.341,3.829-1.284,5.901
		c0.047,1.675-0.363,3.313-0.396,4.983c-0.021,1.024,0.086,1.945,0.742,2.816c0.689,0.916,0.707,1.965,0.075,2.974
		c-0.486-0.637-0.475-1.55-1.155-2.078c-0.238-0.343-0.634-0.294-0.974-0.387c-0.082-0.031-0.155-0.075-0.224-0.128
		c-0.259-0.251-0.499-0.518-0.682-0.833c-0.349-0.913-0.252-1.877-0.164-2.794c0.279-2.892,0.139-5.825,0.847-8.676
		c0.458-1.844,1.247-3.536,2.151-5.199c1.827-3.358,3.6-6.751,4.946-10.338c0.534-1.422,0.718-2.947,1.005-4.438
		c0.192-1,0.618-1.909,1.418-2.475c1.761-1.246,2.217-3.062,2.335-5.006c0.086-1.418,0.114-2.849-0.101-4.272
		c-0.149-0.987,0.12-1.942,0.47-2.849c0.768-1.989-0.091-2.863-1.78-3.452c-1.283-0.447-2.623-0.574-3.956-0.43
		c-1.117,0.12-2.24,0.117-3.354,0.28c-1.651,0.243-3.145-0.145-4.082-1.604c-1.23-1.917-3.042-2.278-5.016-1.902
		c-2.036,0.387-3.912,0.196-5.743-0.731c-0.41-0.207-0.874-0.314-1.33-0.23c-1.851,0.34-3.74,0.456-5.57,0.894
		c-1.234,0.296-2.738,0.532-3.304,1.704c-0.667,1.381-1.052,2.976-0.807,4.595c0.091,0.601,0.214,1.196,0.329,1.792
		c0.181,0.935,0.193,1.875,0.108,2.813c-0.183,2.026,0.595,3.649,2.162,4.847c1.278,0.978,2.363,2.083,3.119,3.505
		c0.553,1.04,1.423,1.623,2.575,1.828c0.354,0.063,0.731,0.058,1.052,0.264C21.137,30.034,21.681,30.743,21.656,31.622z"/>
	<path fill-rule="evenodd" clip-rule="evenodd" fill="#EE5253" d="M176.02,23.262c0.366-0.339,0.672-0.62,0.974-0.905
		c1.974-1.867,4.334-2.366,6.909-1.789c2.822,0.633,4.653,2.842,4.874,5.726c0.293,3.851,0.144,7.708,0.114,11.563
		c-0.006,0.84-0.084,1.688-0.823,2.401c-0.81,0.782-1.666,0.776-2.595,0.571c-0.895-0.198-1.352-0.872-1.51-1.738
		c-0.08-0.444-0.112-0.902-0.113-1.354c-0.01-2.824,0.004-5.647-0.013-8.472c-0.004-0.634-0.047-1.278-0.163-1.9
		c-0.525-2.834-3.115-3.905-5.557-2.317c-1.485,0.965-2.006,2.412-2.12,4.102c-0.205,3.035-0.055,6.071-0.121,9.105
		c-0.037,1.745-0.857,2.633-2.417,2.693c-1.42,0.055-2.31-0.658-2.52-2.064c-0.071-0.478-0.074-0.969-0.074-1.454
		c-0.005-7.014-0.006-14.028,0-21.042c0-0.906-0.046-1.844,0.56-2.61c0.733-0.928,1.723-1.044,2.795-0.747
		c0.94,0.261,1.578,0.999,1.607,2.071c0.062,2.245,0.038,4.492,0.057,6.738C175.888,22.282,175.826,22.736,176.02,23.262z"/>
	<path fill-rule="evenodd" clip-rule="evenodd" fill="#EF5254" d="M290.195,27.441c0.145-0.114,0.273-0.192,0.373-0.298
		c1.664-1.785,3.731-2.135,6.005-1.647c0.882,0.189,1.643,0.693,2.152,1.429c0.451,0.653,0.705,0.603,1.238,0.065
		c1.795-1.808,4.702-2.244,6.782-1.111c1.534,0.836,2.252,2.188,2.28,3.866c0.058,3.248,0.053,6.497,0.024,9.746
		c-0.01,1.166-0.782,1.938-1.822,2.001c-1.202,0.073-2.025-0.568-2.211-1.798c-0.257-1.689-0.075-3.394-0.112-5.092
		c-0.027-1.213,0.014-2.429-0.024-3.643c-0.048-1.499-0.621-2.38-1.585-2.548c-1.244-0.217-2.66,0.597-3.127,1.839
		c-0.301,0.803-0.382,1.653-0.389,2.506c-0.015,2.216-0.006,4.433-0.033,6.648c-0.014,0.994-0.664,1.851-1.495,2.061
		c-0.918,0.232-1.744-0.123-2.278-0.926c-0.276-0.414-0.251-0.864-0.257-1.313c-0.03-2.458-0.048-4.917-0.077-7.375
		c-0.006-0.455-0.022-0.912-0.074-1.363c-0.151-1.321-0.672-1.971-1.638-2.082c-1.45-0.167-2.511,0.377-2.987,1.521
		c-0.636,1.531-0.544,3.157-0.597,4.757c-0.052,1.607,0.016,3.219-0.032,4.827c-0.034,1.119-0.71,1.874-1.637,1.983
		c-1.038,0.123-1.955-0.419-2.275-1.405c-0.109-0.334-0.112-0.715-0.112-1.074c-0.009-3.796-0.005-7.591-0.006-11.387
		c-0.001-1.448,0.526-2.196,1.607-2.334c1.022-0.13,2.109,0.451,2.2,1.86C290.093,27.235,290.144,27.31,290.195,27.441z"/>
	<path fill-rule="evenodd" clip-rule="evenodd" fill="#407FC1" d="M104.741,40.957c-2.527,0.062-4.833-0.437-6.819-1.974
		c-1.164-0.901-1.836-2.073-1.778-3.599c0.033-0.867,0.495-1.419,1.256-1.728c0.797-0.324,1.565-0.245,2.176,0.408
		c0.307,0.328,0.567,0.712,0.788,1.104c1.464,2.612,4.6,2.928,6.587,2.118c0.822-0.334,1.51-0.869,1.543-1.842
		c0.034-1.006-0.479-1.696-1.41-2.127c-1.333-0.618-2.768-0.877-4.162-1.278c-1.136-0.326-2.267-0.67-3.325-1.203
		c-1.83-0.921-3.206-2.179-3.25-4.428c-0.044-2.238,1.041-3.805,2.894-4.905c3.205-1.902,9.026-1.444,11.804,0.906
		c0.47,0.397,0.849,0.869,1.126,1.415c0.524,1.028,0.33,2.233-0.441,2.824c-0.803,0.615-2.145,0.582-2.954-0.13
		c-0.452-0.398-0.844-0.869-1.237-1.33c-1.329-1.555-3.554-2.006-5.358-1.08c-0.665,0.342-1.15,0.84-1.16,1.607
		c-0.009,0.703,0.461,1.147,1.044,1.488c1.122,0.656,2.387,0.862,3.615,1.183c1.583,0.414,3.178,0.779,4.641,1.555
		c1.858,0.986,3.227,2.346,3.15,4.601c-0.087,2.541-1.231,4.467-3.648,5.492C108.179,40.728,106.457,41.019,104.741,40.957z"/>
	<path fill-rule="evenodd" clip-rule="evenodd" fill="#F05254" d="M35.487,62.293c0.982,0.431,1.104,1.317,1.179,2.229
		c-0.838,1.816-1.752,2.164-3.631,1.493c-3.26-1.164-5.05-3.689-6.285-6.721c-1.218-2.992-1.724-6.154-2.18-9.33
		c-0.738-5.146-1.06-10.355-2.265-15.432c-0.229-0.968-0.178-1.998-0.65-2.91c-0.384-0.739-0.902-1.436-0.757-2.346
		c-0.146-1.146,1.219-2.221,2.507-1.965c0.798,0.159,1.332,0.655,1.755,1.334c0.841,1.35,1.098,2.885,1.453,4.388
		c1.051,4.441,1.504,8.974,2.042,13.493c0.396,3.32,0.916,6.614,1.886,9.826c0.593,1.961,1.489,3.715,3.153,4.99
		c0.164,0.286,0.48,0.387,0.717,0.585l0.002,0.001C34.703,62.251,35.21,61.935,35.487,62.293z"/>
	<path fill-rule="evenodd" clip-rule="evenodd" fill="#407FC2" d="M129.533,30.859c0-2.12-0.034-3.882,0.017-5.642
		c0.02-0.685-0.167-0.878-0.854-0.863c-1.219,0.026-1.984-0.624-2.06-1.602c-0.094-1.204,0.666-2.014,2.024-2
		c0.73,0.008,0.921-0.212,0.89-0.921c-0.055-1.242-0.021-2.49,0.005-3.735c0.033-1.517,0.981-2.592,2.309-2.665
		c1.456-0.08,2.439,0.826,2.656,2.391c0.193,1.393,0.076,2.79,0.093,4.185c0.007,0.542,0.141,0.778,0.715,0.723
		c0.451-0.043,0.911-0.023,1.366-0.002c1.127,0.053,1.856,0.676,1.966,1.657c0.103,0.924-0.461,1.547-1.6,1.856
		c-0.601,0.164-1.205,0.14-1.807,0.127c-0.467-0.01-0.638,0.131-0.634,0.617c0.027,3.432,0.012,6.864,0.049,10.295
		c0.012,1.128,0.607,1.668,1.734,1.63c0.601-0.02,1.196-0.174,1.797-0.247c1.021-0.125,1.604,0.202,1.953,1.07
		c0.317,0.79,0.037,1.716-0.691,2.256c-0.809,0.6-1.767,0.83-2.729,0.914c-1.265,0.111-2.542,0.136-3.804-0.149
		c-1.812-0.41-2.908-1.629-3.215-3.614C129.375,34.935,129.616,32.714,129.533,30.859z"/>
	<path fill-rule="evenodd" clip-rule="evenodd" fill="#F05253" d="M209.938,26.923c0,3.462,0.004,6.924-0.003,10.387
		c-0.001,0.574,0.015,1.147-0.138,1.718c-0.348,1.292-1.157,1.932-2.495,1.917c-1.205-0.014-2.072-0.748-2.319-2.01
		c-0.086-0.442-0.117-0.902-0.117-1.354c-0.007-7.077-0.008-14.153,0.002-21.229c0.001-0.542,0.036-1.097,0.152-1.624
		c0.252-1.148,1.12-1.812,2.281-1.826c1.295-0.015,2.144,0.629,2.477,1.827c0.159,0.569,0.15,1.142,0.15,1.716
		c0.006,3.493,0.003,6.986,0.003,10.479C209.934,26.923,209.936,26.923,209.938,26.923z"/>
	<path fill-rule="evenodd" clip-rule="evenodd" fill="#EC5255" d="M257.512,41.529c-3.568-0.046-6.138-1.14-7.512-4.209
		c-1.29-2.882-0.981-7.869,1.887-10.25c1.916-1.589,4.117-1.921,6.484-1.707c1.996,0.181,3.641,1.044,4.955,2.551
		c0.388,0.444,0.641,0.954,0.753,1.53c0.21,1.073-0.134,1.747-1.063,2.111c-0.845,0.33-1.662,0.057-2.178-0.788
		c-0.336-0.548-0.719-1.047-1.202-1.464c-1.585-1.37-3.688-1.241-5.107,0.308c-1.569,1.709-1.661,5.788-0.171,7.573
		c1.763,2.114,4.977,1.798,6.339-0.638c0.36-0.644,0.71-1.32,1.441-1.552c0.54-0.17,1.133-0.16,1.605,0.329
		c0.53,0.547,0.752,1.157,0.542,1.902c-0.596,2.113-2.169,3.226-4.114,3.867C259.204,41.411,258.177,41.633,257.512,41.529z"/>
	<path fill-rule="evenodd" clip-rule="evenodd" fill="#407FC2" d="M91.646,30.583c0,2.577,0.042,5.155-0.013,7.731
		c-0.043,1.998-1.75,3.171-3.494,2.468c-1.142-0.461-1.536-1.472-1.544-2.565c-0.039-5.094-0.043-10.188,0.002-15.282
		c0.014-1.605,1.096-2.597,2.568-2.578c1.456,0.019,2.461,1.066,2.479,2.676c0.028,2.516,0.008,5.033,0.008,7.55
		C91.649,30.583,91.648,30.583,91.646,30.583z"/>
	<path fill-rule="evenodd" clip-rule="evenodd" fill="#EC5253" d="M199.164,30.687c0,2.52,0.033,5.04-0.011,7.558
		c-0.031,1.777-1.172,2.819-2.821,2.701c-1.32-0.094-2.227-1.303-2.231-3.038c-0.009-4.189-0.001-8.378-0.001-12.568
		c0.001-0.759-0.017-1.518,0.006-2.276c0.046-1.6,1.053-2.687,2.474-2.703c1.496-0.017,2.564,1.049,2.584,2.676
		c0.03,2.55,0.008,5.1,0.008,7.65C199.168,30.687,199.166,30.687,199.164,30.687z"/>
	<path fill-rule="evenodd" clip-rule="evenodd" fill="#4180BF" d="M123.008,38.982c-0.227,1.157-1.027,1.896-2.143,1.981
		c-1.219,0.092-2.218-0.561-2.563-1.729c-0.127-0.43-0.193-0.892-0.194-1.34c-0.013-4.856-0.016-9.711-0.005-14.566
		c0.004-1.918,0.993-3.008,2.657-2.969c0.803,0.019,1.457,0.329,1.885,1.039c0.602,1.531,0.429,3.134,0.432,4.719
		c0.007,3.96,0.004,7.92-0.001,11.88C123.075,38.325,123.142,38.662,123.008,38.982z"/>
	<path fill-rule="evenodd" clip-rule="evenodd" fill="#F05254" d="M244.966,35.976c-0.02,2.383-1.927,4.254-4.307,4.224
		c-2.38-0.03-4.3-1.981-4.241-4.31c0.06-2.413,1.936-4.242,4.327-4.22C243.135,31.692,244.987,33.581,244.966,35.976z"/>
	<path fill-rule="evenodd" clip-rule="evenodd" fill="#4080C1" d="M123.185,15.599c-0.014,1.449-1.07,2.429-2.589,2.403
		c-1.461-0.025-2.493-1.024-2.499-2.42c-0.006-1.428,1.14-2.521,2.635-2.512C122.232,13.078,123.199,14.076,123.185,15.599z"/>
	<path fill-rule="evenodd" clip-rule="evenodd" fill="#3F81C1" d="M91.652,15.536c-0.007,1.515-1.039,2.486-2.619,2.464
		c-1.446-0.02-2.453-1.025-2.455-2.452c-0.002-1.388,1.126-2.479,2.563-2.479C90.664,13.068,91.659,14.046,91.652,15.536z"/>
	<path fill-rule="evenodd" clip-rule="evenodd" fill="#EC5355" d="M196.637,13.074c1.54-0.008,2.55,0.967,2.545,2.456
		c-0.005,1.492-1,2.446-2.554,2.452c-1.47,0.006-2.506-0.976-2.529-2.396C194.077,14.194,195.201,13.082,196.637,13.074z"/>
	<path fill-rule="evenodd" clip-rule="evenodd" fill="#5A7C9E" d="M123.008,38.982c-0.006-5.049-0.046-10.097,0.014-15.145
		c0.01-0.866-0.589-1.581-0.376-2.44c0.357,0.573,0.557,1.181,0.555,1.871c-0.011,4.888-0.004,9.775-0.012,14.663
		C123.188,38.285,123.264,38.666,123.008,38.982z"/>
	<path fill-rule="evenodd" clip-rule="evenodd" fill="#BE6784" d="M35.487,62.293c-0.372-0.08-0.874,0.217-1.072-0.368
		C34.791,61.995,35.303,61.665,35.487,62.293z"/>
	<path fill-rule="evenodd" clip-rule="evenodd" fill="#BE6784" d="M33.697,61.609c0.171-0.064,0.188-0.209,0.192-0.363
		c0.163,0.235,0.481,0.35,0.523,0.679C34.118,61.948,33.797,62.027,33.697,61.609z"/>
	<path fill-rule="evenodd" clip-rule="evenodd" fill="#EE5254" d="M225.693,31.835c-1.974,0-3.612,0.019-5.252-0.01
		c-0.553-0.01-0.757,0.147-0.703,0.721c0.183,1.934,0.956,3.518,2.733,4.423c1.769,0.901,3.53,0.641,5.196-0.333
		c0.917-0.536,1.707-1.251,2.464-2c0.821-0.813,1.91-0.953,2.72-0.372c0.613,0.44,0.741,1.3,0.314,2.333
		c-0.677,1.637-1.976,2.677-3.519,3.372c-2.663,1.199-5.465,1.311-8.263,0.585c-3.669-0.952-5.809-3.408-6.601-7.083
		c-0.51-2.366-0.412-4.697,0.38-6.992c1.321-3.826,4.18-5.699,8.041-6.08c3.355-0.331,6.414,0.476,8.65,3.223
		c1.344,1.651,2.029,3.581,1.814,5.736c-0.148,1.499-0.747,2.079-2.223,2.319C229.426,32.009,227.387,31.744,225.693,31.835z
		 M228.126,28.942c0.376,0.002,0.604-0.031,0.604-0.53c-0.002-1.628-1.127-3.413-2.614-4.036c-3.004-1.26-6.121,0.703-6.343,3.972
		c-0.035,0.53,0.2,0.602,0.634,0.596c1.24-0.016,2.482-0.006,3.724-0.006C225.463,28.938,226.794,28.934,228.126,28.942z"/>
	<path fill-rule="evenodd" clip-rule="evenodd" fill="#EC5254" d="M283.192,33.401c0.01,3.772-1.912,6.782-5.06,7.689
		c-2.983,0.86-5.868,0.646-8.283-1.525c-2.545-2.289-2.96-5.285-2.269-8.434c0.896-4.089,4.42-6.332,8.78-5.778
		C280.679,25.901,283.181,28.849,283.192,33.401z M278.987,31.417c-0.388-1.764-1.664-2.985-3.297-3.17
		c-1.672-0.188-3.029,0.509-3.733,2.14c-0.937,2.17-0.921,4.386,0.243,6.482c1.083,1.951,3.869,2.309,5.489,0.774
		c1.223-1.158,1.463-2.661,1.486-4.238C279.211,32.732,279.13,32.07,278.987,31.417z"/>
	<g>
		<path fill="#666666" d="M62.785,60.735l0.126,0.911l0.045,0.009l0.406-0.919l5.573-10.83h1.163l-6.853,13.129h-1.028
			l-2.921-13.129h1.172L62.785,60.735z"/>
		<path fill="#666666" d="M71.027,63.035h-1.073l1.461-9.756h1.073L71.027,63.035z M72.911,50.483h-1.073l0.226-1.515h1.073
			L72.911,50.483z"/>
		<path fill="#666666" d="M77.159,60.591l0.153,1.136l0.045,0.009l0.514-1.145l3.742-7.313h1.118l-5.167,9.756h-0.866l-2.254-9.756
			h1.118L77.159,60.591z"/>
		<path fill="#666666" d="M86.608,63.224c-1.214,0-2.161-0.451-2.84-1.353c-0.68-0.902-0.914-2.044-0.704-3.427l0.082-0.496
			c0.21-1.46,0.776-2.634,1.7-3.521c0.922-0.887,1.982-1.33,3.178-1.33c1.142,0,1.988,0.384,2.538,1.154
			c0.55,0.77,0.732,1.789,0.546,3.057l-0.126,0.839h-6.79l-0.045,0.297c-0.175,1.154-0.035,2.087,0.419,2.8
			c0.454,0.712,1.18,1.069,2.178,1.069c0.571,0,1.128-0.099,1.673-0.298c0.543-0.198,1.002-0.46,1.375-0.784l0.352,0.739
			c-0.397,0.361-0.892,0.66-1.483,0.897C88.067,63.105,87.384,63.224,86.608,63.224z M87.889,54.018
			c-0.793,0-1.509,0.301-2.146,0.902c-0.637,0.601-1.073,1.353-1.308,2.254l0.018,0.054h5.59l0.027-0.225
			c0.132-0.896,0.015-1.618-0.352-2.164C89.353,54.291,88.742,54.018,87.889,54.018z"/>
		<path fill="#666666" d="M98.132,63.035h-1.073l2.11-14.066h1.073L98.132,63.035z"/>
		<path fill="#666666" d="M107.293,63.035c-0.012-0.373-0.018-0.676-0.018-0.911s0.018-0.475,0.054-0.721
			c-0.415,0.523-0.952,0.957-1.61,1.302c-0.658,0.346-1.378,0.519-2.16,0.519c-0.919,0-1.614-0.257-2.083-0.771
			c-0.469-0.514-0.637-1.201-0.505-2.061c0.132-0.908,0.618-1.623,1.457-2.146s1.874-0.785,3.106-0.785h2.398l0.18-1.208
			c0.102-0.728-0.035-1.282-0.41-1.664c-0.376-0.381-0.973-0.572-1.79-0.572c-0.709,0-1.325,0.182-1.848,0.545
			c-0.523,0.364-0.827,0.816-0.911,1.357h-0.992l-0.018-0.054c0.078-0.757,0.488-1.408,1.231-1.952
			c0.742-0.544,1.651-0.816,2.728-0.816c1.034,0,1.844,0.276,2.43,0.829c0.586,0.553,0.804,1.335,0.654,2.345l-0.722,4.797
			c-0.054,0.355-0.087,0.691-0.099,1.01s0.006,0.637,0.054,0.956H107.293z M103.822,62.268c0.793,0,1.53-0.198,2.209-0.595
			c0.68-0.397,1.175-0.899,1.488-1.506l0.289-1.875H105.4c-0.842,0-1.589,0.21-2.241,0.631c-0.652,0.42-1.024,0.922-1.114,1.506
			c-0.084,0.571,0.028,1.02,0.338,1.348C102.693,62.104,103.172,62.268,103.822,62.268z"/>
		<path fill="#666666" d="M119.214,63.224c-1.214,0-2.162-0.451-2.84-1.353c-0.68-0.902-0.914-2.044-0.704-3.427l0.082-0.496
			c0.21-1.46,0.776-2.634,1.699-3.521c0.923-0.887,1.982-1.33,3.179-1.33c1.142,0,1.988,0.384,2.539,1.154
			c0.55,0.77,0.731,1.789,0.545,3.057l-0.126,0.839h-6.79l-0.045,0.297c-0.175,1.154-0.035,2.087,0.419,2.8s1.18,1.069,2.178,1.069
			c0.571,0,1.128-0.099,1.673-0.298c0.543-0.198,1.002-0.46,1.375-0.784l0.352,0.739c-0.397,0.361-0.892,0.66-1.483,0.897
			C120.673,63.105,119.989,63.224,119.214,63.224z M120.494,54.018c-0.793,0-1.509,0.301-2.146,0.902
			c-0.638,0.601-1.073,1.353-1.308,2.254l0.018,0.054h5.59l0.027-0.225c0.132-0.896,0.015-1.618-0.352-2.164
			C121.958,54.291,121.348,54.018,120.494,54.018z"/>
		<path fill="#666666" d="M127.311,54.91c0.403-0.583,0.891-1.031,1.465-1.343c0.574-0.313,1.228-0.469,1.961-0.469
			c1.022,0,1.771,0.326,2.245,0.978c0.475,0.653,0.61,1.658,0.406,3.017l-0.893,5.942h-1.082l0.893-5.933
			c0.168-1.161,0.083-1.961-0.257-2.403s-0.903-0.663-1.69-0.663c-0.746,0-1.387,0.197-1.925,0.59
			c-0.538,0.394-0.966,0.916-1.285,1.565l-1.028,6.844h-1.082l1.461-9.756h0.956L127.311,54.91z"/>
		<path fill="#666666" d="M138.997,63.224c-1.214,0-2.161-0.451-2.84-1.353s-0.914-2.044-0.703-3.427l0.081-0.496
			c0.21-1.46,0.777-2.634,1.7-3.521c0.922-0.887,1.982-1.33,3.178-1.33c1.142,0,1.988,0.384,2.539,1.154
			c0.55,0.77,0.732,1.789,0.545,3.057l-0.126,0.839h-6.79l-0.045,0.297c-0.174,1.154-0.034,2.087,0.419,2.8s1.18,1.069,2.178,1.069
			c0.571,0,1.128-0.099,1.672-0.298c0.544-0.198,1.002-0.46,1.375-0.784l0.352,0.739c-0.396,0.361-0.891,0.66-1.483,0.897
			S139.772,63.224,138.997,63.224z M140.277,54.018c-0.793,0-1.509,0.301-2.146,0.902c-0.637,0.601-1.073,1.353-1.308,2.254
			l0.018,0.054h5.591l0.027-0.225c0.132-0.896,0.015-1.618-0.352-2.164C141.741,54.291,141.131,54.018,140.277,54.018z"/>
		<path fill="#666666" d="M150.602,54.207l-0.757-0.054c-0.656,0-1.235,0.199-1.741,0.595c-0.505,0.397-0.905,0.935-1.199,1.614
			l-1.001,6.672h-1.082l1.461-9.756h0.947l-0.108,1.623l-0.009,0.054c0.366-0.589,0.812-1.045,1.334-1.37s1.115-0.487,1.776-0.487
			c0.126,0,0.25,0.01,0.374,0.031c0.124,0.021,0.221,0.043,0.293,0.067L150.602,54.207z"/>
		<path fill="#666666" d="M151.287,58.238c0.24-1.617,0.754-2.878,1.542-3.783c0.788-0.904,1.776-1.356,2.966-1.356
			c0.667,0,1.237,0.153,1.708,0.46c0.472,0.306,0.834,0.739,1.087,1.298l0.397-1.578h0.875l-1.47,9.811
			c-0.198,1.292-0.686,2.263-1.461,2.913c-0.775,0.649-1.797,0.974-3.065,0.974c-0.457,0-0.945-0.058-1.466-0.171
			c-0.52-0.114-0.963-0.271-1.33-0.469l0.343-0.911c0.366,0.192,0.763,0.337,1.19,0.437c0.427,0.099,0.893,0.149,1.398,0.149
			c0.925,0,1.671-0.25,2.236-0.749c0.564-0.499,0.919-1.224,1.064-2.173l0.207-1.38c-0.403,0.487-0.877,0.861-1.424,1.123
			c-0.547,0.262-1.154,0.393-1.822,0.393c-1.118,0-1.954-0.44-2.506-1.321c-0.554-0.88-0.719-2.039-0.496-3.476L151.287,58.238z
			 M152.342,58.427c-0.187,1.213-0.095,2.161,0.275,2.84s1.033,1.019,1.988,1.019c0.661,0,1.251-0.158,1.771-0.474
			c0.521-0.315,0.958-0.744,1.313-1.285l0.694-4.634c-0.163-0.547-0.444-0.994-0.843-1.339c-0.4-0.346-0.958-0.519-1.673-0.519
			c-0.914,0-1.68,0.396-2.299,1.186c-0.619,0.791-1.019,1.796-1.199,3.017L152.342,58.427z"/>
		<path fill="#666666" d="M162.405,63.035h-1.082l1.46-9.756h1.082L162.405,63.035z M165.065,49.329h1.325l0.018,0.054l-2.579,2.345
			h-0.902l-0.018-0.045L165.065,49.329z"/>
		<path fill="#666666" d="M171.521,63.035c-0.012-0.373-0.018-0.676-0.018-0.911s0.018-0.475,0.054-0.721
			c-0.415,0.523-0.952,0.957-1.61,1.302c-0.658,0.346-1.378,0.519-2.16,0.519c-0.919,0-1.614-0.257-2.083-0.771
			c-0.469-0.514-0.637-1.201-0.505-2.061c0.132-0.908,0.617-1.623,1.456-2.146c0.838-0.523,1.874-0.785,3.106-0.785h2.398
			l0.18-1.208c0.102-0.728-0.034-1.282-0.41-1.664c-0.376-0.381-0.973-0.572-1.79-0.572c-0.709,0-1.325,0.182-1.848,0.545
			c-0.523,0.364-0.827,0.816-0.911,1.357h-0.992l-0.018-0.054c0.078-0.757,0.488-1.408,1.231-1.952
			c0.742-0.544,1.651-0.816,2.728-0.816c1.034,0,1.844,0.276,2.43,0.829c0.586,0.553,0.804,1.335,0.654,2.345l-0.721,4.797
			c-0.055,0.355-0.087,0.691-0.1,1.01s0.006,0.637,0.054,0.956H171.521z M168.05,62.268c0.793,0,1.53-0.198,2.209-0.595
			c0.679-0.397,1.175-0.899,1.487-1.506l0.289-1.875h-2.408c-0.842,0-1.589,0.21-2.241,0.631c-0.652,0.42-1.023,0.922-1.113,1.506
			c-0.084,0.571,0.028,1.02,0.338,1.348C166.921,62.104,167.401,62.268,168.05,62.268z"/>
		<path fill="#666666" d="M180.061,58.238c0.24-1.617,0.754-2.878,1.542-3.783c0.788-0.904,1.776-1.356,2.967-1.356
			c0.649,0,1.205,0.146,1.668,0.437c0.462,0.292,0.826,0.705,1.091,1.24l0.866-5.807h1.082l-2.11,14.066h-0.883l0.063-1.416
			c-0.404,0.517-0.883,0.914-1.439,1.19s-1.18,0.415-1.871,0.415c-1.124,0-1.962-0.44-2.511-1.321
			c-0.55-0.88-0.714-2.039-0.491-3.476L180.061,58.238z M181.116,58.427c-0.187,1.22-0.097,2.168,0.271,2.844
			c0.366,0.676,1.027,1.015,1.984,1.015c0.667,0,1.262-0.159,1.785-0.478c0.523-0.319,0.959-0.752,1.308-1.299l0.695-4.589
			c-0.163-0.56-0.444-1.013-0.843-1.362c-0.4-0.349-0.96-0.523-1.682-0.523c-0.914,0-1.679,0.396-2.295,1.186
			c-0.616,0.791-1.014,1.796-1.194,3.017L181.116,58.427z"/>
		<path fill="#666666" d="M193.721,63.224c-1.214,0-2.162-0.451-2.84-1.353c-0.68-0.902-0.914-2.044-0.703-3.427l0.081-0.496
			c0.21-1.46,0.777-2.634,1.699-3.521c0.923-0.887,1.982-1.33,3.179-1.33c1.142,0,1.988,0.384,2.538,1.154s0.731,1.789,0.546,3.057
			l-0.127,0.839h-6.79l-0.045,0.297c-0.174,1.154-0.034,2.087,0.419,2.8c0.454,0.712,1.18,1.069,2.178,1.069
			c0.571,0,1.128-0.099,1.672-0.298c0.544-0.198,1.002-0.46,1.376-0.784l0.352,0.739c-0.397,0.361-0.892,0.66-1.484,0.897
			C195.18,63.105,194.497,63.224,193.721,63.224z M195.001,54.018c-0.793,0-1.509,0.301-2.146,0.902
			c-0.637,0.601-1.073,1.353-1.307,2.254l0.018,0.054h5.59l0.027-0.225c0.132-0.896,0.015-1.618-0.353-2.164
			C196.465,54.291,195.855,54.018,195.001,54.018z"/>
		<path fill="#666666" d="M213.937,58.932l0.019,0.054c-0.175,1.34-0.744,2.382-1.709,3.124s-2.163,1.114-3.593,1.114
			c-1.407,0-2.493-0.532-3.261-1.596c-0.766-1.064-1.022-2.426-0.771-4.085l0.325-2.137c0.258-1.731,0.908-3.112,1.951-4.144
			c1.043-1.031,2.305-1.546,3.783-1.546c1.37,0,2.44,0.378,3.21,1.136c0.77,0.757,1.043,1.788,0.82,3.093L214.686,54h-1.011
			c0.169-1.094-0.024-1.928-0.581-2.502c-0.556-0.574-1.408-0.861-2.557-0.861c-1.1,0-2.077,0.448-2.931,1.343
			c-0.854,0.896-1.382,2.032-1.587,3.409l-0.324,2.155c-0.217,1.455-0.045,2.614,0.514,3.477c0.56,0.862,1.419,1.294,2.579,1.294
			c1.095,0,2.017-0.292,2.768-0.875c0.752-0.583,1.212-1.419,1.38-2.506H213.937z"/>
		<path fill="#666666" d="M218.175,54.875c0.415-0.572,0.915-1.01,1.501-1.316c0.587-0.307,1.24-0.46,1.961-0.46
			c0.992,0,1.725,0.321,2.196,0.965c0.472,0.643,0.608,1.628,0.41,2.957l-0.901,6.015h-1.082l0.901-6.032
			c0.163-1.1,0.074-1.87-0.266-2.309c-0.341-0.439-0.886-0.658-1.637-0.658c-0.739,0-1.386,0.192-1.938,0.577
			c-0.554,0.384-0.998,0.896-1.335,1.533l-1.028,6.889h-1.081l2.109-14.066h1.082L218.175,54.875z"/>
		<path fill="#666666" d="M227.364,63.035h-1.073l1.461-9.756h1.073L227.364,63.035z M229.249,50.483h-1.073l0.226-1.515h1.072
			L229.249,50.483z"/>
		<path fill="#666666" d="M231.556,63.035h-1.072l2.109-14.066h1.073L231.556,63.035z"/>
		<path fill="#666666" d="M238.22,63.224c-1.215,0-2.161-0.451-2.841-1.353s-0.914-2.044-0.703-3.427l0.081-0.496
			c0.21-1.46,0.777-2.634,1.7-3.521c0.922-0.887,1.981-1.33,3.178-1.33c1.143,0,1.988,0.384,2.539,1.154
			c0.55,0.77,0.731,1.789,0.545,3.057l-0.126,0.839h-6.79l-0.044,0.297c-0.175,1.154-0.035,2.087,0.418,2.8
			c0.454,0.712,1.18,1.069,2.178,1.069c0.571,0,1.129-0.099,1.673-0.298c0.544-0.198,1.002-0.46,1.375-0.784l0.352,0.739
			c-0.396,0.361-0.891,0.66-1.483,0.897C239.679,63.105,238.996,63.224,238.22,63.224z M239.5,54.018
			c-0.793,0-1.509,0.301-2.146,0.902c-0.637,0.601-1.072,1.353-1.307,2.254l0.018,0.054h5.591l0.027-0.225
			c0.132-0.896,0.015-1.618-0.353-2.164C240.964,54.291,240.354,54.018,239.5,54.018z"/>
		<path fill="#666666" d="M245.326,63.035h-1.281l0.227-1.506h1.28L245.326,63.035z M245.867,58.725h-1.073l1.316-8.819h1.073
			L245.867,58.725z"/>
	</g>
</g>
</svg>
